<svg width="156" height="32" viewBox="0 0 156 32" fill="none" xmlns="http://www.w3.org/2000/svg">
<rect width="156" height="32" fill="#001744"/>
<path d="M2.91992 26C2.32747 26 2.03125 25.6826 2.03125 25.0479V8.74707C2.03125 8.1123 2.32747 7.79492 2.91992 7.79492H7.35059C11.2438 7.79492 13.876 8.58203 15.2471 10.1562C16.6266 11.7305 17.3164 13.9691 17.3164 16.8721C17.3164 19.7751 16.6266 22.0221 15.2471 23.6133C13.876 25.2044 11.2438 26 7.35059 26H2.91992ZM5.73828 22.8516H7.10938C9.73307 22.8516 11.43 22.3649 12.2002 21.3916C12.9704 20.4098 13.3555 18.9033 13.3555 16.8721C13.3555 14.8408 12.9704 13.3428 12.2002 12.3779C11.43 11.4046 9.73307 10.918 7.10938 10.918H5.73828V22.8516ZM21.3281 26C20.7357 26 20.4395 25.6826 20.4395 25.0479V8.74707C20.4395 8.1123 20.7357 7.79492 21.3281 7.79492H32.2207C32.8555 7.79492 33.1729 8.06999 33.1729 8.62012V10.1182C33.1729 10.6683 32.8555 10.9434 32.2207 10.9434H24.1465V14.9805H31.5479C32.1826 14.9805 32.5 15.2555 32.5 15.8057V17.3037C32.5 17.8538 32.1826 18.1289 31.5479 18.1289H24.1465V22.8516H32.627C33.2617 22.8516 33.5791 23.1266 33.5791 23.6768V25.1748C33.5791 25.7249 33.2617 26 32.627 26H21.3281ZM37.5781 26C36.9857 26 36.6895 25.6826 36.6895 25.0479V8.74707C36.6895 8.1123 36.9857 7.79492 37.5781 7.79492H39.6348C40.1426 7.79492 40.3965 8.1123 40.3965 8.74707V22.8516H47.7979C48.4326 22.8516 48.75 23.1266 48.75 23.6768V25.1748C48.75 25.7249 48.4326 26 47.7979 26H37.5781ZM53.8027 5.47168C53.3118 5.27702 53.1468 4.98079 53.3076 4.58301L53.5615 3.94824C53.7223 3.55046 54.0439 3.45312 54.5264 3.65625L58.2207 5.17969H58.2461L61.9404 3.65625C62.4229 3.45312 62.7445 3.55046 62.9053 3.94824L63.1592 4.58301C63.32 4.98079 63.1549 5.27702 62.6641 5.47168L59.5664 6.71582C59.2956 6.82585 58.9782 6.88086 58.6143 6.88086H57.8525C57.4886 6.88086 57.1712 6.82585 56.9004 6.71582L53.8027 5.47168ZM51.6572 24.6416C51.1325 24.2438 51.0055 23.8418 51.2764 23.4355L52.2539 21.9629C52.5755 21.4805 53.0452 21.4551 53.6631 21.8867C54.137 22.2168 54.7549 22.5596 55.5166 22.915C56.2868 23.262 57.0951 23.4355 57.9414 23.4355C58.5339 23.4355 59.1051 23.3678 59.6553 23.2324C60.2054 23.097 60.6243 22.8346 60.9121 22.4453C61.1999 22.056 61.3438 21.5947 61.3438 21.0615C61.3438 20.6807 61.2803 20.3464 61.1533 20.0586C61.0264 19.7708 60.819 19.5339 60.5312 19.3477C60.2435 19.1615 59.9473 19.0049 59.6426 18.8779C59.1094 18.6579 58.4365 18.4421 57.624 18.2305C56.82 18.0104 56.0244 17.748 55.2373 17.4434C54.5348 17.1725 53.8916 16.8001 53.3076 16.3262C52.7236 15.8522 52.2708 15.319 51.9492 14.7266C51.6276 14.1341 51.4668 13.3428 51.4668 12.3525C51.4668 11.1761 51.8477 10.1689 52.6094 9.33105C53.3711 8.49316 54.2471 7.95573 55.2373 7.71875C56.2275 7.48177 57.2262 7.36328 58.2334 7.36328C59.2321 7.36328 60.2604 7.51562 61.3184 7.82031C62.3848 8.125 63.1888 8.50586 63.7305 8.96289C64.2637 9.41146 64.3949 9.81771 64.124 10.1816L63.0957 11.5654C62.7487 12.0394 62.2832 12.0775 61.6992 11.6797C61.3268 11.4258 60.8148 11.1423 60.1631 10.8291C59.5199 10.516 58.847 10.3594 58.1445 10.3594C57.6452 10.3594 57.1839 10.4017 56.7607 10.4863C56.346 10.571 55.9779 10.7741 55.6562 11.0957C55.3346 11.4173 55.1738 11.8151 55.1738 12.2891C55.1738 12.7461 55.2923 13.1185 55.5293 13.4062C55.7663 13.6855 56.0286 13.8971 56.3164 14.041C56.6042 14.1764 56.8962 14.2907 57.1924 14.3838C58.1064 14.68 58.9232 14.9424 59.6426 15.1709C60.362 15.391 61.0264 15.6364 61.6357 15.9072C62.4821 16.2881 63.1296 16.6689 63.5781 17.0498C64.0267 17.4307 64.3949 17.9512 64.6826 18.6113C64.9788 19.2715 65.127 20.0586 65.127 20.9727C65.127 22.3268 64.6953 23.4482 63.832 24.3369C62.9688 25.2171 62.0081 25.7842 60.9502 26.0381C59.9007 26.3005 58.8766 26.4316 57.8779 26.4316C56.4053 26.4316 55.2077 26.2878 54.2852 26C53.3626 25.7207 52.4867 25.2679 51.6572 24.6416ZM68.2119 6.44922C67.6449 6.44922 67.5391 6.17839 67.8945 5.63672L69.0117 3.93555C69.2741 3.53776 69.7354 3.33887 70.3955 3.33887H72.6299C73.3916 3.33887 73.4932 3.59701 72.9346 4.11328L70.9287 5.9668C70.5817 6.28841 70.112 6.44922 69.5195 6.44922H68.2119ZM68.9355 26C68.3431 26 68.0469 25.6826 68.0469 25.0479V8.74707C68.0469 8.1123 68.3431 7.79492 68.9355 7.79492H70.8652C71.4577 7.79492 71.7539 8.1123 71.7539 8.74707V25.0479C71.7539 25.6826 71.4577 26 70.8652 26H68.9355ZM85.5918 26C84.9993 26 84.7031 25.6826 84.7031 25.0479V8.74707C84.7031 8.1123 84.9993 7.79492 85.5918 7.79492H87.6484C88.1562 7.79492 88.4102 8.1123 88.4102 8.74707V22.8516H95.8115C96.4463 22.8516 96.7637 23.1266 96.7637 23.6768V25.1748C96.7637 25.7249 96.4463 26 95.8115 26H85.5918ZM98.5156 16.8975C98.5156 13.9775 99.2689 11.6585 100.775 9.94043C102.282 8.22233 104.432 7.36328 107.225 7.36328C110.018 7.36328 112.167 8.22233 113.674 9.94043C115.18 11.6585 115.934 13.9775 115.934 16.8975C115.934 19.8174 115.18 22.1364 113.674 23.8545C112.167 25.5726 110.018 26.4316 107.225 26.4316C104.432 26.4316 102.282 25.5726 100.775 23.8545C99.2689 22.1364 98.5156 19.8174 98.5156 16.8975ZM102.477 16.8975C102.477 19.0133 102.853 20.6341 103.606 21.7598C104.368 22.877 105.574 23.4355 107.225 23.4355C108.875 23.4355 110.077 22.877 110.83 21.7598C111.592 20.6341 111.973 19.0133 111.973 16.8975C111.973 14.7816 111.592 13.165 110.83 12.0479C110.077 10.9222 108.875 10.3594 107.225 10.3594C105.574 10.3594 104.368 10.9222 103.606 12.0479C102.853 13.165 102.477 14.7816 102.477 16.8975ZM118.117 16.8975C118.117 13.9775 118.879 11.6585 120.402 9.94043C121.926 8.22233 124.084 7.36328 126.877 7.36328C128.561 7.36328 129.882 7.5791 130.838 8.01074C131.803 8.44238 132.649 9.111 133.377 10.0166C133.817 10.5667 133.804 10.9941 133.339 11.2988L131.892 12.2383C131.468 12.5176 131.016 12.3949 130.533 11.8701C130.135 11.4385 129.632 11.0788 129.022 10.791C128.413 10.5033 127.74 10.3594 127.004 10.3594C125.227 10.3594 123.961 10.9222 123.208 12.0479C122.455 13.165 122.078 14.7816 122.078 16.8975C122.078 19.0133 122.455 20.6341 123.208 21.7598C123.961 22.877 125.227 23.4355 127.004 23.4355C127.867 23.4355 128.612 23.3509 129.238 23.1816C129.865 23.0039 130.457 22.6865 131.016 22.2295V19.957H128.261C127.626 19.957 127.309 19.682 127.309 19.1318V17.6338C127.309 17.0837 127.626 16.8086 128.261 16.8086H133.771C134.405 16.8086 134.723 17.0837 134.723 17.6338V24.083C133.538 24.9548 132.34 25.5641 131.13 25.9111C129.928 26.2581 128.51 26.4316 126.877 26.4316C124.126 26.4316 121.977 25.5726 120.428 23.8545C118.887 22.1364 118.117 19.8174 118.117 16.8975ZM137.236 16.8975C137.236 13.9775 137.99 11.6585 139.496 9.94043C141.003 8.22233 143.152 7.36328 145.945 7.36328C148.738 7.36328 150.888 8.22233 152.395 9.94043C153.901 11.6585 154.654 13.9775 154.654 16.8975C154.654 19.8174 153.901 22.1364 152.395 23.8545C150.888 25.5726 148.738 26.4316 145.945 26.4316C143.152 26.4316 141.003 25.5726 139.496 23.8545C137.99 22.1364 137.236 19.8174 137.236 16.8975ZM141.197 16.8975C141.197 19.0133 141.574 20.6341 142.327 21.7598C143.089 22.877 144.295 23.4355 145.945 23.4355C147.596 23.4355 148.798 22.877 149.551 21.7598C150.312 20.6341 150.693 19.0133 150.693 16.8975C150.693 14.7816 150.312 13.165 149.551 12.0479C148.798 10.9222 147.596 10.3594 145.945 10.3594C144.295 10.3594 143.089 10.9222 142.327 12.0479C141.574 13.165 141.197 14.7816 141.197 16.8975Z" fill="white"/>
</svg>
